<?xml version="1.0" encoding="UTF-8"?>
<!DOCTYPE svg PUBLIC "-//W3C//DTD SVG 1.1//EN" "http://www.w3.org/Graphics/SVG/1.1/DTD/svg11.dtd">
<svg xmlns="http://www.w3.org/2000/svg" version="1.1" width="500px" height="500px" style="shape-rendering:geometricPrecision; text-rendering:geometricPrecision; image-rendering:optimizeQuality; fill-rule:evenodd; clip-rule:evenodd" xmlns:xlink="http://www.w3.org/1999/xlink">
<g><path style="opacity:0.874" fill="#000000" d="M 129.5,24.5 C 130.552,24.3505 131.552,24.5172 132.5,25C 139.206,31.706 145.873,38.3727 152.5,45C 145.938,52.7124 138.771,59.8791 131,66.5C 124.454,58.9563 117.621,51.7897 110.5,45C 116.659,38.0079 122.992,31.1746 129.5,24.5 Z"/></g>
<g><path style="opacity:0.928" fill="#000000" d="M 217.5,56.5 C 219.144,56.2865 220.644,56.6198 222,57.5C 226.424,70.3415 230.257,83.3415 233.5,96.5C 247.869,187.21 209.369,231.543 118,229.5C 114.588,227.645 111.088,227.312 107.5,228.5C 99.7298,225.723 91.7298,223.556 83.5,222C 67.1586,214.981 53.8252,204.315 43.5,190C 43.8333,189.667 44.1667,189.333 44.5,189C 41.6346,184.735 39.1346,180.235 37,175.5C 30.9018,152.433 29.9018,129.1 34,105.5C 37.3274,91.3526 41.1607,77.3526 45.5,63.5C 47.604,63.2011 49.604,63.5344 51.5,64.5C 58.855,68.346 66.5217,71.346 74.5,73.5C 68.8888,92.1696 64.8888,111.17 62.5,130.5C 62.7996,143.16 65.2996,155.494 70,167.5C 79.0335,182.938 92.0335,192.271 109,195.5C 109.873,195.265 110.707,194.931 111.5,194.5C 118.37,196.159 125.37,197.159 132.5,197.5C 137.313,196.979 141.979,196.979 146.5,197.5C 163.226,195.591 177.392,188.591 189,176.5C 200.609,161.671 205.776,144.838 204.5,126C 203.095,105.713 198.095,86.3793 189.5,68C 189.905,67.0546 190.572,66.3879 191.5,66C 200.353,63.0612 209.02,59.8945 217.5,56.5 Z"/></g>
<g><path style="opacity:0.859" fill="#000000" d="M 401.5,202.5 C 409.424,208.755 416.758,215.755 423.5,223.5C 416.826,230.674 409.993,237.674 403,244.5C 401.177,243.349 399.344,242.182 397.5,241C 393.333,235.5 388.5,230.667 383,226.5C 382.362,225.391 381.862,224.225 381.5,223C 388.347,216.32 395.014,209.486 401.5,202.5 Z"/></g>
<g><path style="opacity:0.865" fill="#000000" d="M 454.5,202.5 C 462.477,208.81 469.811,215.81 476.5,223.5C 469.86,230.806 462.86,237.806 455.5,244.5C 448.167,237.833 441.167,230.833 434.5,223.5C 441.21,216.459 447.876,209.459 454.5,202.5 Z"/></g>
<g><path style="opacity:0.934" fill="#000000" d="M 20.5,205.5 C 22.5952,206.412 24.5952,207.579 26.5,209C 33.969,217.47 41.8023,225.637 50,233.5C 50.3367,236.861 50.8367,240.194 51.5,243.5C 50.9986,273.006 50.6653,302.506 50.5,332C 53.0241,348.024 62.3574,357.19 78.5,359.5C 92.2838,358.358 103.45,352.358 112,341.5C 116.235,331.865 121.068,322.365 126.5,313C 132.036,298.409 142.369,287.076 157.5,279C 181.944,270.549 203.11,275.716 221,294.5C 235.016,314.972 239.35,337.306 234,361.5C 226.667,383.482 211.334,394.815 188,395.5C 172.854,394.714 158.521,390.381 145,382.5C 139.95,377.62 134.45,373.286 128.5,369.5C 119.382,382.085 107.049,389.585 91.5,392C 43.9012,393.9 19.9012,371.067 19.5,323.5C 20.3587,284.189 20.692,244.856 20.5,205.5 Z M 175.5,308.5 C 189.205,308.269 198.372,314.602 203,327.5C 206.553,337.311 206.219,346.977 202,356.5C 193.183,363.891 183.35,365.391 172.5,361C 162.742,356.533 154.575,350.033 148,341.5C 147.333,339.5 147.333,337.5 148,335.5C 151.694,326.502 157.194,319.002 164.5,313C 168.261,311.436 171.928,309.936 175.5,308.5 Z"/></g>
<g><path style="opacity:0.929" fill="#000000" d="M 460.5,267.5 C 461.978,267.238 463.311,267.571 464.5,268.5C 471.229,290.275 474.229,312.441 473.5,335C 472.102,351.349 465.768,365.349 454.5,377C 443.092,384.12 430.759,388.953 417.5,391.5C 399.484,392.16 381.484,392.16 363.5,391.5C 361.828,398.52 359.995,405.52 358,412.5C 355.544,419.412 352.044,425.745 347.5,431.5C 340.264,439.571 332.597,447.071 324.5,454C 305.9,465.309 285.9,472.643 264.5,476C 262.462,471.424 260.295,466.924 258,462.5C 256.473,457.463 254.973,452.463 253.5,447.5C 281.626,444.355 305.126,432.355 324,411.5C 325.968,408.187 327.968,404.854 330,401.5C 330.975,398.24 332.142,395.073 333.5,392C 315.673,392.538 298.173,390.705 281,386.5C 266.943,382.109 257.943,372.776 254,358.5C 247.983,327.506 256.816,301.839 280.5,281.5C 304.419,265.562 326.252,268.562 346,290.5C 358.638,311.219 364.805,333.719 364.5,358C 381.455,358.444 398.288,358.611 415,358.5C 420.528,357.832 426.028,356.165 431.5,353.5C 436.088,350.008 438.921,345.341 440,339.5C 440.617,333.922 441.451,328.088 442.5,322C 441.926,315.086 440.926,308.253 439.5,301.5C 439.833,300.833 440.167,300.167 440.5,299.5C 438.245,291.59 436.745,283.59 436,275.5C 444.11,272.346 452.277,269.679 460.5,267.5 Z M 301.5,305.5 C 305.061,305.748 308.728,305.915 312.5,306C 324.797,312.329 331.63,322.496 333,336.5C 334.116,343.792 334.616,351.126 334.5,358.5C 321.829,359.778 309.162,359.611 296.5,358C 288.875,354.873 284.209,349.206 282.5,341C 282.883,334.783 284.216,328.783 286.5,323C 287.884,314.423 292.884,308.589 301.5,305.5 Z"/></g>
</svg>
